<svg aria-hidden="true" style="position: absolute; width: 0; height: 0; overflow: hidden;" version="1.1" xmlns="http://www.w3.org/2000/svg" xmlns:xlink="http://www.w3.org/1999/xlink">
<defs>
<symbol id="icon-present" viewBox="0 0 32 32">
<path d="M9.881 0.1c-0.844 0.181-1.806 0.775-2.331 1.444-0.975 1.244-1.2 2.906-0.581 4.3 0.088 0.2 0.156 0.369 0.156 0.381 0 0.006-0.963 0.025-2.138 0.037-2.025 0.025-2.163 0.031-2.513 0.162-0.994 0.369-1.7 1.125-2 2.131-0.088 0.294-0.1 0.75-0.1 3.194v2.856l0.144 0.213c0.238 0.356 0.594 0.494 1.306 0.494h0.613v6.938c0 4.819 0.019 7.031 0.069 7.262 0.181 0.856 0.875 1.775 1.619 2.131 0.787 0.375 0.088 0.356 11.875 0.356 9.481 0 10.831-0.012 11.156-0.094 1.181-0.306 2.1-1.244 2.337-2.394 0.050-0.231 0.069-2.444 0.069-7.262v-6.938h0.613c0.712 0 1.069-0.137 1.306-0.494l0.144-0.213v-2.856c0-2.444-0.012-2.9-0.1-3.194-0.3-1.006-1.006-1.763-2-2.131-0.35-0.131-0.488-0.138-2.506-0.162-1.181-0.013-2.144-0.031-2.144-0.037 0-0.013 0.069-0.181 0.156-0.381 0.738-1.662 0.256-3.694-1.144-4.862-0.469-0.394-1.244-0.769-1.825-0.894-0.919-0.194-2.206-0.031-3.288 0.419-0.906 0.375-2.044 1.275-2.637 2.087l-0.137 0.188-0.137-0.188c-0.244-0.331-0.944-1.038-1.313-1.319-1.294-1-3.231-1.488-4.669-1.175zM11.844 2.231c1.019 0.25 2.119 1.125 2.613 2.063 0.262 0.5 0.481 1.269 0.481 1.688v0.275l-2.356-0.019c-2.306-0.019-2.369-0.025-2.65-0.162-0.463-0.225-0.781-0.544-1.006-1-0.181-0.369-0.206-0.475-0.206-0.919 0.006-0.606 0.144-0.95 0.563-1.4 0.606-0.644 1.412-0.813 2.563-0.525zM22.075 2.294c0.425 0.188 0.869 0.631 1.063 1.063 0.1 0.219 0.137 0.431 0.137 0.8 0.006 0.45-0.019 0.55-0.2 0.919-0.225 0.456-0.544 0.775-1.006 1-0.281 0.138-0.344 0.144-2.644 0.162l-2.363 0.019v-0.275c0-0.419 0.219-1.188 0.481-1.688 0.331-0.638 1.075-1.369 1.738-1.712 1.038-0.531 2.012-0.631 2.794-0.288zM12.875 10.781v2.406h-10.444l0.019-2.088c0.019-2.006 0.025-2.1 0.15-2.269 0.069-0.094 0.225-0.238 0.337-0.319l0.206-0.137h9.731v2.406zM17.063 10.781v2.406h-2.125v-4.813h2.125v2.406zM29.063 8.512c0.113 0.081 0.269 0.225 0.337 0.319 0.125 0.169 0.131 0.262 0.15 2.269l0.019 2.088h-10.444v-4.813h9.731l0.206 0.137zM12.875 22.625v7.313h-3.669c-2.475 0-3.756-0.025-3.925-0.069-0.313-0.087-0.625-0.4-0.713-0.712-0.050-0.175-0.069-2.306-0.069-7.050v-6.794h8.375v7.313zM17.050 22.606l-0.019 7.3h-2.063l-0.019-7.3-0.012-7.294h2.125l-0.012 7.294zM27.5 22.106c0 4.744-0.019 6.875-0.069 7.050-0.087 0.313-0.4 0.625-0.712 0.712-0.169 0.044-1.45 0.069-3.919 0.069h-3.675v-14.625h8.375v6.794z"></path>
</symbol>
<symbol id="icon-minus" viewBox="0 0 32 32">
<path d="M1.5 14.15c-0.594 0.125-1.075 0.519-1.325 1.088-0.494 1.113 0.206 2.419 1.406 2.631 0.556 0.094 28.3 0.1 28.831 0 0.644-0.119 1.15-0.512 1.413-1.106 0.494-1.113-0.206-2.419-1.406-2.631-0.587-0.1-28.444-0.088-28.919 0.019z"></path>
</symbol>
<symbol id="icon-plus" viewBox="0 0 32 32">
<path d="M15.181 0.081c-0.35 0.1-0.813 0.431-1.019 0.725-0.363 0.525-0.35 0.219-0.35 7.013v6.244h-5.925c-3.962 0-6.050 0.025-6.3 0.069-0.95 0.169-1.556 0.894-1.556 1.869s0.606 1.7 1.556 1.869c0.25 0.044 2.337 0.069 6.3 0.069h5.925l0.012 6.294 0.019 6.3 0.144 0.313c0.331 0.712 0.963 1.119 1.762 1.125 0.806 0 1.381-0.381 1.744-1.156l0.163-0.344 0.019-6.269 0.019-6.262h6.175c4.137 0 6.294-0.025 6.544-0.069 1.706-0.306 2.15-2.494 0.7-3.469-0.194-0.131-0.431-0.225-0.694-0.269-0.294-0.050-2.131-0.056-6.6-0.025l-6.194 0.037v-6.287c0-6.156 0-6.294-0.125-6.625-0.15-0.4-0.544-0.825-0.956-1.031-0.35-0.175-0.969-0.231-1.363-0.119z"></path>
</symbol>
<symbol id="icon-right" viewBox="0 0 32 32">
<path d="M23.4 10.994c-0.35 0.15-0.45 0.675-0.188 0.988 0.081 0.094 1.369 0.875 2.863 1.738l2.712 1.563-14.156 0.031c-13.675 0.031-14.169 0.037-14.331 0.15-0.369 0.244-0.369 0.831 0.006 1.081 0.156 0.106 0.813 0.113 14.344 0.131l14.188 0.012-2.719 1.563c-1.494 0.863-2.788 1.65-2.881 1.75-0.25 0.269-0.244 0.631 0.006 0.881 0.363 0.356 0.256 0.406 4.606-2.106 4.088-2.363 4.15-2.4 4.15-2.775s-0.063-0.419-4.106-2.75c-3.944-2.275-4.175-2.394-4.494-2.256z"></path>
</symbol>
</defs>
</svg>
